<svg xmlns="http://www.w3.org/2000/svg" viewBox="0 0 760 460" width="760" height="460" role="img"><rect x="0" y="0" width="760" height="460" rx="10" fill="#ffffff" stroke="#d1d5db"/><text x="62" y="26" font-family="ui-monospace,monospace" font-size="16" font-weight="700" fill="#1f2937">Hit ratio vs cache size: zipf-0.9</text><text x="62" y="44" font-family="ui-monospace,monospace" font-size="11" fill="#6b7280">18,500 distinct keys, 200,000 requests</text><line x1="62" y1="404" x2="592" y2="404" stroke="#e5e7eb"/><text x="54" y="408" text-anchor="end" font-family="ui-monospace,monospace" font-size="11" fill="#6b7280">0%</text><line x1="62" y1="334" x2="592" y2="334" stroke="#e5e7eb"/><text x="54" y="338" text-anchor="end" font-family="ui-monospace,monospace" font-size="11" fill="#6b7280">20%</text><line x1="62" y1="264" x2="592" y2="264" stroke="#e5e7eb"/><text x="54" y="268" text-anchor="end" font-family="ui-monospace,monospace" font-size="11" fill="#6b7280">40%</text><line x1="62" y1="194" x2="592" y2="194" stroke="#e5e7eb"/><text x="54" y="198" text-anchor="end" font-family="ui-monospace,monospace" font-size="11" fill="#6b7280">60%</text><line x1="62" y1="123.99999999999999" x2="592" y2="123.99999999999999" stroke="#e5e7eb"/><text x="54" y="127.99999999999999" text-anchor="end" font-family="ui-monospace,monospace" font-size="11" fill="#6b7280">80%</text><line x1="62" y1="54" x2="592" y2="54" stroke="#e5e7eb"/><text x="54" y="58" text-anchor="end" font-family="ui-monospace,monospace" font-size="11" fill="#6b7280">100%</text><line x1="62" y1="54" x2="62" y2="404" stroke="#e5e7eb" stroke-dasharray="2,3"/><text x="62" y="422" text-anchor="middle" font-family="ui-monospace,monospace" font-size="11" fill="#6b7280">19</text><line x1="215.18595674939533" y1="54" x2="215.18595674939533" y2="404" stroke="#e5e7eb" stroke-dasharray="2,3"/><text x="215.18595674939533" y="422" text-anchor="middle" font-family="ui-monospace,monospace" font-size="11" fill="#6b7280">93</text><line x1="281.52346532522614" y1="54" x2="281.52346532522614" y2="404" stroke="#e5e7eb" stroke-dasharray="2,3"/><text x="281.52346532522614" y="422" text-anchor="middle" font-family="ui-monospace,monospace" font-size="11" fill="#6b7280">185</text><line x1="436.76173266261304" y1="54" x2="436.76173266261304" y2="404" stroke="#e5e7eb" stroke-dasharray="2,3"/><text x="436.76173266261304" y="422" text-anchor="middle" font-family="ui-monospace,monospace" font-size="11" fill="#6b7280">925</text><line x1="503.61921532075615" y1="54" x2="503.61921532075615" y2="404" stroke="#e5e7eb" stroke-dasharray="2,3"/><text x="503.61921532075615" y="422" text-anchor="middle" font-family="ui-monospace,monospace" font-size="11" fill="#6b7280">1,850</text><line x1="592" y1="54" x2="592" y2="404" stroke="#e5e7eb" stroke-dasharray="2,3"/><text x="592" y="422" text-anchor="middle" font-family="ui-monospace,monospace" font-size="11" fill="#6b7280">4,625</text><text x="327" y="448" text-anchor="middle" font-family="ui-monospace,monospace" font-size="12" fill="#1f2937">cache size (entries, log scale)</text><text x="16" y="229" text-anchor="middle" font-family="ui-monospace,monospace" font-size="12" fill="#1f2937" transform="rotate(-90 16 229)">hit ratio</text><polyline points="62.0,334.1 215.2,287.5 281.5,266.4 436.8,210.0 503.6,184.0 592.0,144.6" fill="none" stroke="#0ea5e9" stroke-width="3.2" stroke-linejoin="round"/><circle cx="62.0" cy="334.1" r="3.4" fill="#0ea5e9"/><circle cx="215.2" cy="287.5" r="3.4" fill="#0ea5e9"/><circle cx="281.5" cy="266.4" r="3.4" fill="#0ea5e9"/><circle cx="436.8" cy="210.0" r="3.4" fill="#0ea5e9"/><circle cx="503.6" cy="184.0" r="3.4" fill="#0ea5e9"/><circle cx="592.0" cy="144.6" r="3.4" fill="#0ea5e9"/><line x1="606" y1="60" x2="626" y2="60" stroke="#0ea5e9" stroke-width="3.2"/><text x="632" y="64" font-family="ui-monospace,monospace" font-size="11" font-weight="700" fill="#1f2937">koffein</text><polyline points="62.0,332.8 215.2,286.5 281.5,266.3 436.8,211.9 503.6,185.2 592.0,145.1" fill="none" stroke="#dc2626" stroke-width="2" stroke-linejoin="round"/><circle cx="62.0" cy="332.8" r="2.6" fill="#dc2626"/><circle cx="215.2" cy="286.5" r="2.6" fill="#dc2626"/><circle cx="281.5" cy="266.3" r="2.6" fill="#dc2626"/><circle cx="436.8" cy="211.9" r="2.6" fill="#dc2626"/><circle cx="503.6" cy="185.2" r="2.6" fill="#dc2626"/><circle cx="592.0" cy="145.1" r="2.6" fill="#dc2626"/><line x1="606" y1="79" x2="626" y2="79" stroke="#dc2626" stroke-width="2"/><text x="632" y="83" font-family="ui-monospace,monospace" font-size="11" font-weight="400" fill="#1f2937">LFU</text><polyline points="62.0,331.6 215.2,285.0 281.5,263.7 436.8,211.3 503.6,185.2 592.0,145.1" fill="none" stroke="#16a34a" stroke-width="2" stroke-linejoin="round"/><circle cx="62.0" cy="331.6" r="2.6" fill="#16a34a"/><circle cx="215.2" cy="285.0" r="2.6" fill="#16a34a"/><circle cx="281.5" cy="263.7" r="2.6" fill="#16a34a"/><circle cx="436.8" cy="211.3" r="2.6" fill="#16a34a"/><circle cx="503.6" cy="185.2" r="2.6" fill="#16a34a"/><circle cx="592.0" cy="145.1" r="2.6" fill="#16a34a"/><line x1="606" y1="98" x2="626" y2="98" stroke="#16a34a" stroke-width="2"/><text x="632" y="102" font-family="ui-monospace,monospace" font-size="11" font-weight="400" fill="#1f2937">SIEVE</text><polyline points="62.0,327.3 215.2,284.7 281.5,263.7 436.8,208.8 503.6,182.8 592.0,145.6" fill="none" stroke="#9333ea" stroke-width="2" stroke-linejoin="round"/><circle cx="62.0" cy="327.3" r="2.6" fill="#9333ea"/><circle cx="215.2" cy="284.7" r="2.6" fill="#9333ea"/><circle cx="281.5" cy="263.7" r="2.6" fill="#9333ea"/><circle cx="436.8" cy="208.8" r="2.6" fill="#9333ea"/><circle cx="503.6" cy="182.8" r="2.6" fill="#9333ea"/><circle cx="592.0" cy="145.6" r="2.6" fill="#9333ea"/><line x1="606" y1="117" x2="626" y2="117" stroke="#9333ea" stroke-width="2"/><text x="632" y="121" font-family="ui-monospace,monospace" font-size="11" font-weight="400" fill="#1f2937">S3-FIFO</text><polyline points="62.0,372.7 215.2,328.2 281.5,305.1 436.8,240.8 503.6,207.7 592.0,158.1" fill="none" stroke="#ea580c" stroke-width="2" stroke-linejoin="round"/><circle cx="62.0" cy="372.7" r="2.6" fill="#ea580c"/><circle cx="215.2" cy="328.2" r="2.6" fill="#ea580c"/><circle cx="281.5" cy="305.1" r="2.6" fill="#ea580c"/><circle cx="436.8" cy="240.8" r="2.6" fill="#ea580c"/><circle cx="503.6" cy="207.7" r="2.6" fill="#ea580c"/><circle cx="592.0" cy="158.1" r="2.6" fill="#ea580c"/><line x1="606" y1="136" x2="626" y2="136" stroke="#ea580c" stroke-width="2"/><text x="632" y="140" font-family="ui-monospace,monospace" font-size="11" font-weight="400" fill="#1f2937">LRU</text><polyline points="62.0,372.7 215.2,328.2 281.5,305.1 436.8,240.8 503.6,207.7 592.0,158.1" fill="none" stroke="#0891b2" stroke-width="2" stroke-linejoin="round"/><circle cx="62.0" cy="372.7" r="2.6" fill="#0891b2"/><circle cx="215.2" cy="328.2" r="2.6" fill="#0891b2"/><circle cx="281.5" cy="305.1" r="2.6" fill="#0891b2"/><circle cx="436.8" cy="240.8" r="2.6" fill="#0891b2"/><circle cx="503.6" cy="207.7" r="2.6" fill="#0891b2"/><circle cx="592.0" cy="158.1" r="2.6" fill="#0891b2"/><line x1="606" y1="155" x2="626" y2="155" stroke="#0891b2" stroke-width="2"/><text x="632" y="159" font-family="ui-monospace,monospace" font-size="11" font-weight="400" fill="#1f2937">lru-cache</text><polyline points="62.0,372.7 215.2,328.2 281.5,305.1 436.8,240.8 503.6,207.7 592.0,158.1" fill="none" stroke="#ca8a04" stroke-width="2" stroke-linejoin="round"/><circle cx="62.0" cy="372.7" r="2.6" fill="#ca8a04"/><circle cx="215.2" cy="328.2" r="2.6" fill="#ca8a04"/><circle cx="281.5" cy="305.1" r="2.6" fill="#ca8a04"/><circle cx="436.8" cy="240.8" r="2.6" fill="#ca8a04"/><circle cx="503.6" cy="207.7" r="2.6" fill="#ca8a04"/><circle cx="592.0" cy="158.1" r="2.6" fill="#ca8a04"/><line x1="606" y1="174" x2="626" y2="174" stroke="#ca8a04" stroke-width="2"/><text x="632" y="178" font-family="ui-monospace,monospace" font-size="11" font-weight="400" fill="#1f2937">tiny-lru</text><polyline points="62.0,372.7 215.2,328.2 281.5,305.1 436.8,240.8 503.6,207.7 592.0,158.1" fill="none" stroke="#db2777" stroke-width="2" stroke-linejoin="round"/><circle cx="62.0" cy="372.7" r="2.6" fill="#db2777"/><circle cx="215.2" cy="328.2" r="2.6" fill="#db2777"/><circle cx="281.5" cy="305.1" r="2.6" fill="#db2777"/><circle cx="436.8" cy="240.8" r="2.6" fill="#db2777"/><circle cx="503.6" cy="207.7" r="2.6" fill="#db2777"/><circle cx="592.0" cy="158.1" r="2.6" fill="#db2777"/><line x1="606" y1="193" x2="626" y2="193" stroke="#db2777" stroke-width="2"/><text x="632" y="197" font-family="ui-monospace,monospace" font-size="11" font-weight="400" fill="#1f2937">mnemonist</text><polyline points="62.0,372.7 215.2,328.2 281.5,305.1 436.8,240.8 503.6,207.7 592.0,158.1" fill="none" stroke="#475569" stroke-width="2" stroke-linejoin="round"/><circle cx="62.0" cy="372.7" r="2.6" fill="#475569"/><circle cx="215.2" cy="328.2" r="2.6" fill="#475569"/><circle cx="281.5" cy="305.1" r="2.6" fill="#475569"/><circle cx="436.8" cy="240.8" r="2.6" fill="#475569"/><circle cx="503.6" cy="207.7" r="2.6" fill="#475569"/><circle cx="592.0" cy="158.1" r="2.6" fill="#475569"/><line x1="606" y1="212" x2="626" y2="212" stroke="#475569" stroke-width="2"/><text x="632" y="216" font-family="ui-monospace,monospace" font-size="11" font-weight="400" fill="#1f2937">lru.min</text><polyline points="62.0,338.3 215.2,296.0 281.5,275.3 436.8,223.1 503.6,201.6 592.0,159.9" fill="none" stroke="#65a30d" stroke-width="2" stroke-linejoin="round"/><circle cx="62.0" cy="338.3" r="2.6" fill="#65a30d"/><circle cx="215.2" cy="296.0" r="2.6" fill="#65a30d"/><circle cx="281.5" cy="275.3" r="2.6" fill="#65a30d"/><circle cx="436.8" cy="223.1" r="2.6" fill="#65a30d"/><circle cx="503.6" cy="201.6" r="2.6" fill="#65a30d"/><circle cx="592.0" cy="159.9" r="2.6" fill="#65a30d"/><line x1="606" y1="231" x2="626" y2="231" stroke="#65a30d" stroke-width="2"/><text x="632" y="235" font-family="ui-monospace,monospace" font-size="11" font-weight="400" fill="#1f2937">transitory</text><polyline points="62.0,374.9 215.2,331.9 281.5,308.9 436.8,244.8 503.6,211.6 592.0,161.4" fill="none" stroke="#7c3aed" stroke-width="2" stroke-linejoin="round"/><circle cx="62.0" cy="374.9" r="2.6" fill="#7c3aed"/><circle cx="215.2" cy="331.9" r="2.6" fill="#7c3aed"/><circle cx="281.5" cy="308.9" r="2.6" fill="#7c3aed"/><circle cx="436.8" cy="244.8" r="2.6" fill="#7c3aed"/><circle cx="503.6" cy="211.6" r="2.6" fill="#7c3aed"/><circle cx="592.0" cy="161.4" r="2.6" fill="#7c3aed"/><line x1="606" y1="250" x2="626" y2="250" stroke="#7c3aed" stroke-width="2"/><text x="632" y="254" font-family="ui-monospace,monospace" font-size="11" font-weight="400" fill="#1f2937">CLOCK</text><polyline points="62.0,377.1 215.2,339.1 281.5,318.0 436.8,255.6 503.6,223.2 592.0,172.1" fill="none" stroke="#0d9488" stroke-width="2" stroke-linejoin="round"/><circle cx="62.0" cy="377.1" r="2.6" fill="#0d9488"/><circle cx="215.2" cy="339.1" r="2.6" fill="#0d9488"/><circle cx="281.5" cy="318.0" r="2.6" fill="#0d9488"/><circle cx="436.8" cy="255.6" r="2.6" fill="#0d9488"/><circle cx="503.6" cy="223.2" r="2.6" fill="#0d9488"/><circle cx="592.0" cy="172.1" r="2.6" fill="#0d9488"/><line x1="606" y1="269" x2="626" y2="269" stroke="#0d9488" stroke-width="2"/><text x="632" y="273" font-family="ui-monospace,monospace" font-size="11" font-weight="400" fill="#1f2937">Random</text><polyline points="62.0,377.0 215.2,339.5 281.5,317.9 436.8,255.8 503.6,222.9 592.0,172.1" fill="none" stroke="#b91c1c" stroke-width="2" stroke-linejoin="round"/><circle cx="62.0" cy="377.0" r="2.6" fill="#b91c1c"/><circle cx="215.2" cy="339.5" r="2.6" fill="#b91c1c"/><circle cx="281.5" cy="317.9" r="2.6" fill="#b91c1c"/><circle cx="436.8" cy="255.8" r="2.6" fill="#b91c1c"/><circle cx="503.6" cy="222.9" r="2.6" fill="#b91c1c"/><circle cx="592.0" cy="172.1" r="2.6" fill="#b91c1c"/><line x1="606" y1="288" x2="626" y2="288" stroke="#b91c1c" stroke-width="2"/><text x="632" y="292" font-family="ui-monospace,monospace" font-size="11" font-weight="400" fill="#1f2937">FIFO</text><polyline points="62.0,378.7 215.2,338.1 281.5,316.6 436.8,256.4 503.6,225.8 592.0,180.1" fill="none" stroke="#1d4ed8" stroke-width="2" stroke-linejoin="round"/><circle cx="62.0" cy="378.7" r="2.6" fill="#1d4ed8"/><circle cx="215.2" cy="338.1" r="2.6" fill="#1d4ed8"/><circle cx="281.5" cy="316.6" r="2.6" fill="#1d4ed8"/><circle cx="436.8" cy="256.4" r="2.6" fill="#1d4ed8"/><circle cx="503.6" cy="225.8" r="2.6" fill="#1d4ed8"/><circle cx="592.0" cy="180.1" r="2.6" fill="#1d4ed8"/><line x1="606" y1="307" x2="626" y2="307" stroke="#1d4ed8" stroke-width="2"/><text x="632" y="311" font-family="ui-monospace,monospace" font-size="11" font-weight="400" fill="#1f2937">quick-lru</text><polyline points="62.0,378.7 215.2,338.1 281.5,316.6 436.8,256.4 503.6,225.8 592.0,180.1" fill="none" stroke="#4d7c0f" stroke-width="2" stroke-linejoin="round"/><circle cx="62.0" cy="378.7" r="2.6" fill="#4d7c0f"/><circle cx="215.2" cy="338.1" r="2.6" fill="#4d7c0f"/><circle cx="281.5" cy="316.6" r="2.6" fill="#4d7c0f"/><circle cx="436.8" cy="256.4" r="2.6" fill="#4d7c0f"/><circle cx="503.6" cy="225.8" r="2.6" fill="#4d7c0f"/><circle cx="592.0" cy="180.1" r="2.6" fill="#4d7c0f"/><line x1="606" y1="326" x2="626" y2="326" stroke="#4d7c0f" stroke-width="2"/><text x="632" y="330" font-family="ui-monospace,monospace" font-size="11" font-weight="400" fill="#1f2937">hashlru</text><polyline points="62.0,309.8 215.2,258.1 281.5,233.9 436.8,172.9 503.6,145.7 592.0,111.8" fill="none" stroke="#111827" stroke-width="3.2" stroke-linejoin="round"/><circle cx="62.0" cy="309.8" r="3.4" fill="#111827"/><circle cx="215.2" cy="258.1" r="3.4" fill="#111827"/><circle cx="281.5" cy="233.9" r="3.4" fill="#111827"/><circle cx="436.8" cy="172.9" r="3.4" fill="#111827"/><circle cx="503.6" cy="145.7" r="3.4" fill="#111827"/><circle cx="592.0" cy="111.8" r="3.4" fill="#111827"/><line x1="606" y1="345" x2="626" y2="345" stroke="#111827" stroke-width="3.2"/><text x="632" y="349" font-family="ui-monospace,monospace" font-size="11" font-weight="700" fill="#1f2937">OPT</text></svg>