<svg xmlns="http://www.w3.org/2000/svg" viewBox="0 0 760 460" width="760" height="460" role="img"><rect x="0" y="0" width="760" height="460" rx="10" fill="#ffffff" stroke="#d1d5db"/><text x="62" y="26" font-family="ui-monospace,monospace" font-size="16" font-weight="700" fill="#1f2937">Hit ratio vs cache size: shift</text><text x="62" y="44" font-family="ui-monospace,monospace" font-size="11" fill="#6b7280">18,804 distinct keys, 200,000 requests</text><line x1="62" y1="404" x2="592" y2="404" stroke="#e5e7eb"/><text x="54" y="408" text-anchor="end" font-family="ui-monospace,monospace" font-size="11" fill="#6b7280">0%</text><line x1="62" y1="334" x2="592" y2="334" stroke="#e5e7eb"/><text x="54" y="338" text-anchor="end" font-family="ui-monospace,monospace" font-size="11" fill="#6b7280">20%</text><line x1="62" y1="264" x2="592" y2="264" stroke="#e5e7eb"/><text x="54" y="268" text-anchor="end" font-family="ui-monospace,monospace" font-size="11" fill="#6b7280">40%</text><line x1="62" y1="194" x2="592" y2="194" stroke="#e5e7eb"/><text x="54" y="198" text-anchor="end" font-family="ui-monospace,monospace" font-size="11" fill="#6b7280">60%</text><line x1="62" y1="123.99999999999999" x2="592" y2="123.99999999999999" stroke="#e5e7eb"/><text x="54" y="127.99999999999999" text-anchor="end" font-family="ui-monospace,monospace" font-size="11" fill="#6b7280">80%</text><line x1="62" y1="54" x2="592" y2="54" stroke="#e5e7eb"/><text x="54" y="58" text-anchor="end" font-family="ui-monospace,monospace" font-size="11" fill="#6b7280">100%</text><line x1="62" y1="54" x2="62" y2="404" stroke="#e5e7eb" stroke-dasharray="2,3"/><text x="62" y="422" text-anchor="middle" font-family="ui-monospace,monospace" font-size="11" fill="#6b7280">19</text><line x1="215.76147677300833" y1="54" x2="215.76147677300833" y2="404" stroke="#e5e7eb" stroke-dasharray="2,3"/><text x="215.76147677300833" y="422" text-anchor="middle" font-family="ui-monospace,monospace" font-size="11" fill="#6b7280">94</text><line x1="282.42123051506655" y1="54" x2="282.42123051506655" y2="404" stroke="#e5e7eb" stroke-dasharray="2,3"/><text x="282.42123051506655" y="422" text-anchor="middle" font-family="ui-monospace,monospace" font-size="11" fill="#6b7280">188</text><line x1="437.2003855270245" y1="54" x2="437.2003855270245" y2="404" stroke="#e5e7eb" stroke-dasharray="2,3"/><text x="437.2003855270245" y="422" text-anchor="middle" font-family="ui-monospace,monospace" font-size="11" fill="#6b7280">940</text><line x1="503.86013926908265" y1="54" x2="503.86013926908265" y2="404" stroke="#e5e7eb" stroke-dasharray="2,3"/><text x="503.86013926908265" y="422" text-anchor="middle" font-family="ui-monospace,monospace" font-size="11" fill="#6b7280">1,880</text><line x1="592" y1="54" x2="592" y2="404" stroke="#e5e7eb" stroke-dasharray="2,3"/><text x="592" y="422" text-anchor="middle" font-family="ui-monospace,monospace" font-size="11" fill="#6b7280">4,701</text><text x="327" y="448" text-anchor="middle" font-family="ui-monospace,monospace" font-size="12" fill="#1f2937">cache size (entries, log scale)</text><text x="16" y="229" text-anchor="middle" font-family="ui-monospace,monospace" font-size="12" fill="#1f2937" transform="rotate(-90 16 229)">hit ratio</text><polyline points="62.0,359.2 215.8,299.5 282.4,268.0 437.2,180.6 503.9,136.4 592.0,86.9" fill="none" stroke="#0ea5e9" stroke-width="2" stroke-linejoin="round"/><circle cx="62.0" cy="359.2" r="2.6" fill="#0ea5e9"/><circle cx="215.8" cy="299.5" r="2.6" fill="#0ea5e9"/><circle cx="282.4" cy="268.0" r="2.6" fill="#0ea5e9"/><circle cx="437.2" cy="180.6" r="2.6" fill="#0ea5e9"/><circle cx="503.9" cy="136.4" r="2.6" fill="#0ea5e9"/><circle cx="592.0" cy="86.9" r="2.6" fill="#0ea5e9"/><line x1="606" y1="60" x2="626" y2="60" stroke="#0ea5e9" stroke-width="2"/><text x="632" y="64" font-family="ui-monospace,monospace" font-size="11" font-weight="400" fill="#1f2937">LRU</text><polyline points="62.0,362.2 215.8,303.8 282.4,272.5 437.2,184.3 503.9,138.9 592.0,86.9" fill="none" stroke="#dc2626" stroke-width="2" stroke-linejoin="round"/><circle cx="62.0" cy="362.2" r="2.6" fill="#dc2626"/><circle cx="215.8" cy="303.8" r="2.6" fill="#dc2626"/><circle cx="282.4" cy="272.5" r="2.6" fill="#dc2626"/><circle cx="437.2" cy="184.3" r="2.6" fill="#dc2626"/><circle cx="503.9" cy="138.9" r="2.6" fill="#dc2626"/><circle cx="592.0" cy="86.9" r="2.6" fill="#dc2626"/><line x1="606" y1="79" x2="626" y2="79" stroke="#dc2626" stroke-width="2"/><text x="632" y="83" font-family="ui-monospace,monospace" font-size="11" font-weight="400" fill="#1f2937">CLOCK</text><polyline points="62.0,359.2 215.8,299.5 282.4,268.0 437.2,180.6 503.9,136.4 592.0,86.9" fill="none" stroke="#16a34a" stroke-width="2" stroke-linejoin="round"/><circle cx="62.0" cy="359.2" r="2.6" fill="#16a34a"/><circle cx="215.8" cy="299.5" r="2.6" fill="#16a34a"/><circle cx="282.4" cy="268.0" r="2.6" fill="#16a34a"/><circle cx="437.2" cy="180.6" r="2.6" fill="#16a34a"/><circle cx="503.9" cy="136.4" r="2.6" fill="#16a34a"/><circle cx="592.0" cy="86.9" r="2.6" fill="#16a34a"/><line x1="606" y1="98" x2="626" y2="98" stroke="#16a34a" stroke-width="2"/><text x="632" y="102" font-family="ui-monospace,monospace" font-size="11" font-weight="400" fill="#1f2937">lru-cache</text><polyline points="62.0,359.2 215.8,299.5 282.4,268.0 437.2,180.6 503.9,136.4 592.0,86.9" fill="none" stroke="#9333ea" stroke-width="2" stroke-linejoin="round"/><circle cx="62.0" cy="359.2" r="2.6" fill="#9333ea"/><circle cx="215.8" cy="299.5" r="2.6" fill="#9333ea"/><circle cx="282.4" cy="268.0" r="2.6" fill="#9333ea"/><circle cx="437.2" cy="180.6" r="2.6" fill="#9333ea"/><circle cx="503.9" cy="136.4" r="2.6" fill="#9333ea"/><circle cx="592.0" cy="86.9" r="2.6" fill="#9333ea"/><line x1="606" y1="117" x2="626" y2="117" stroke="#9333ea" stroke-width="2"/><text x="632" y="121" font-family="ui-monospace,monospace" font-size="11" font-weight="400" fill="#1f2937">tiny-lru</text><polyline points="62.0,359.2 215.8,299.5 282.4,268.0 437.2,180.6 503.9,136.4 592.0,86.9" fill="none" stroke="#ea580c" stroke-width="2" stroke-linejoin="round"/><circle cx="62.0" cy="359.2" r="2.6" fill="#ea580c"/><circle cx="215.8" cy="299.5" r="2.6" fill="#ea580c"/><circle cx="282.4" cy="268.0" r="2.6" fill="#ea580c"/><circle cx="437.2" cy="180.6" r="2.6" fill="#ea580c"/><circle cx="503.9" cy="136.4" r="2.6" fill="#ea580c"/><circle cx="592.0" cy="86.9" r="2.6" fill="#ea580c"/><line x1="606" y1="136" x2="626" y2="136" stroke="#ea580c" stroke-width="2"/><text x="632" y="140" font-family="ui-monospace,monospace" font-size="11" font-weight="400" fill="#1f2937">mnemonist</text><polyline points="62.0,359.2 215.8,299.5 282.4,268.0 437.2,180.6 503.9,136.4 592.0,86.9" fill="none" stroke="#0891b2" stroke-width="2" stroke-linejoin="round"/><circle cx="62.0" cy="359.2" r="2.6" fill="#0891b2"/><circle cx="215.8" cy="299.5" r="2.6" fill="#0891b2"/><circle cx="282.4" cy="268.0" r="2.6" fill="#0891b2"/><circle cx="437.2" cy="180.6" r="2.6" fill="#0891b2"/><circle cx="503.9" cy="136.4" r="2.6" fill="#0891b2"/><circle cx="592.0" cy="86.9" r="2.6" fill="#0891b2"/><line x1="606" y1="155" x2="626" y2="155" stroke="#0891b2" stroke-width="2"/><text x="632" y="159" font-family="ui-monospace,monospace" font-size="11" font-weight="400" fill="#1f2937">lru.min</text><polyline points="62.0,365.4 215.8,313.5 282.4,283.7 437.2,196.5 503.9,149.4 592.0,86.9" fill="none" stroke="#ca8a04" stroke-width="2" stroke-linejoin="round"/><circle cx="62.0" cy="365.4" r="2.6" fill="#ca8a04"/><circle cx="215.8" cy="313.5" r="2.6" fill="#ca8a04"/><circle cx="282.4" cy="283.7" r="2.6" fill="#ca8a04"/><circle cx="437.2" cy="196.5" r="2.6" fill="#ca8a04"/><circle cx="503.9" cy="149.4" r="2.6" fill="#ca8a04"/><circle cx="592.0" cy="86.9" r="2.6" fill="#ca8a04"/><line x1="606" y1="174" x2="626" y2="174" stroke="#ca8a04" stroke-width="2"/><text x="632" y="178" font-family="ui-monospace,monospace" font-size="11" font-weight="400" fill="#1f2937">FIFO</text><polyline points="62.0,365.3 215.8,313.5 282.4,283.8 437.2,197.3 503.9,152.4 592.0,102.8" fill="none" stroke="#db2777" stroke-width="2" stroke-linejoin="round"/><circle cx="62.0" cy="365.3" r="2.6" fill="#db2777"/><circle cx="215.8" cy="313.5" r="2.6" fill="#db2777"/><circle cx="282.4" cy="283.8" r="2.6" fill="#db2777"/><circle cx="437.2" cy="197.3" r="2.6" fill="#db2777"/><circle cx="503.9" cy="152.4" r="2.6" fill="#db2777"/><circle cx="592.0" cy="102.8" r="2.6" fill="#db2777"/><line x1="606" y1="193" x2="626" y2="193" stroke="#db2777" stroke-width="2"/><text x="632" y="197" font-family="ui-monospace,monospace" font-size="11" font-weight="400" fill="#1f2937">Random</text><polyline points="62.0,310.3 215.8,257.7 282.4,231.6 437.2,167.1 503.9,138.1 592.0,108.4" fill="none" stroke="#475569" stroke-width="2" stroke-linejoin="round"/><circle cx="62.0" cy="310.3" r="2.6" fill="#475569"/><circle cx="215.8" cy="257.7" r="2.6" fill="#475569"/><circle cx="282.4" cy="231.6" r="2.6" fill="#475569"/><circle cx="437.2" cy="167.1" r="2.6" fill="#475569"/><circle cx="503.9" cy="138.1" r="2.6" fill="#475569"/><circle cx="592.0" cy="108.4" r="2.6" fill="#475569"/><line x1="606" y1="212" x2="626" y2="212" stroke="#475569" stroke-width="2"/><text x="632" y="216" font-family="ui-monospace,monospace" font-size="11" font-weight="400" fill="#1f2937">S3-FIFO</text><polyline points="62.0,367.4 215.8,313.6 282.4,284.3 437.2,203.6 503.9,162.9 592.0,108.8" fill="none" stroke="#65a30d" stroke-width="2" stroke-linejoin="round"/><circle cx="62.0" cy="367.4" r="2.6" fill="#65a30d"/><circle cx="215.8" cy="313.6" r="2.6" fill="#65a30d"/><circle cx="282.4" cy="284.3" r="2.6" fill="#65a30d"/><circle cx="437.2" cy="203.6" r="2.6" fill="#65a30d"/><circle cx="503.9" cy="162.9" r="2.6" fill="#65a30d"/><circle cx="592.0" cy="108.8" r="2.6" fill="#65a30d"/><line x1="606" y1="231" x2="626" y2="231" stroke="#65a30d" stroke-width="2"/><text x="632" y="235" font-family="ui-monospace,monospace" font-size="11" font-weight="400" fill="#1f2937">quick-lru</text><polyline points="62.0,367.4 215.8,313.6 282.4,284.3 437.2,203.6 503.9,162.9 592.0,108.8" fill="none" stroke="#7c3aed" stroke-width="2" stroke-linejoin="round"/><circle cx="62.0" cy="367.4" r="2.6" fill="#7c3aed"/><circle cx="215.8" cy="313.6" r="2.6" fill="#7c3aed"/><circle cx="282.4" cy="284.3" r="2.6" fill="#7c3aed"/><circle cx="437.2" cy="203.6" r="2.6" fill="#7c3aed"/><circle cx="503.9" cy="162.9" r="2.6" fill="#7c3aed"/><circle cx="592.0" cy="108.8" r="2.6" fill="#7c3aed"/><line x1="606" y1="250" x2="626" y2="250" stroke="#7c3aed" stroke-width="2"/><text x="632" y="254" font-family="ui-monospace,monospace" font-size="11" font-weight="400" fill="#1f2937">hashlru</text><polyline points="62.0,315.0 215.8,258.8 282.4,235.4 437.2,175.0 503.9,171.1 592.0,129.7" fill="none" stroke="#0d9488" stroke-width="2" stroke-linejoin="round"/><circle cx="62.0" cy="315.0" r="2.6" fill="#0d9488"/><circle cx="215.8" cy="258.8" r="2.6" fill="#0d9488"/><circle cx="282.4" cy="235.4" r="2.6" fill="#0d9488"/><circle cx="437.2" cy="175.0" r="2.6" fill="#0d9488"/><circle cx="503.9" cy="171.1" r="2.6" fill="#0d9488"/><circle cx="592.0" cy="129.7" r="2.6" fill="#0d9488"/><line x1="606" y1="269" x2="626" y2="269" stroke="#0d9488" stroke-width="2"/><text x="632" y="273" font-family="ui-monospace,monospace" font-size="11" font-weight="400" fill="#1f2937">SIEVE</text><polyline points="62.0,317.9 215.8,262.0 282.4,235.5 437.2,179.9 503.9,161.4 592.0,137.9" fill="none" stroke="#b91c1c" stroke-width="3.2" stroke-linejoin="round"/><circle cx="62.0" cy="317.9" r="3.4" fill="#b91c1c"/><circle cx="215.8" cy="262.0" r="3.4" fill="#b91c1c"/><circle cx="282.4" cy="235.5" r="3.4" fill="#b91c1c"/><circle cx="437.2" cy="179.9" r="3.4" fill="#b91c1c"/><circle cx="503.9" cy="161.4" r="3.4" fill="#b91c1c"/><circle cx="592.0" cy="137.9" r="3.4" fill="#b91c1c"/><line x1="606" y1="288" x2="626" y2="288" stroke="#b91c1c" stroke-width="3.2"/><text x="632" y="292" font-family="ui-monospace,monospace" font-size="11" font-weight="700" fill="#1f2937">koffein</text><polyline points="62.0,322.9 215.8,272.7 282.4,246.1 437.2,191.6 503.9,167.4 592.0,146.3" fill="none" stroke="#1d4ed8" stroke-width="2" stroke-linejoin="round"/><circle cx="62.0" cy="322.9" r="2.6" fill="#1d4ed8"/><circle cx="215.8" cy="272.7" r="2.6" fill="#1d4ed8"/><circle cx="282.4" cy="246.1" r="2.6" fill="#1d4ed8"/><circle cx="437.2" cy="191.6" r="2.6" fill="#1d4ed8"/><circle cx="503.9" cy="167.4" r="2.6" fill="#1d4ed8"/><circle cx="592.0" cy="146.3" r="2.6" fill="#1d4ed8"/><line x1="606" y1="307" x2="626" y2="307" stroke="#1d4ed8" stroke-width="2"/><text x="632" y="311" font-family="ui-monospace,monospace" font-size="11" font-weight="400" fill="#1f2937">transitory</text><polyline points="62.0,379.3 215.8,364.9 282.4,354.3 437.2,300.4 503.9,253.9 592.0,216.6" fill="none" stroke="#4d7c0f" stroke-width="2" stroke-linejoin="round"/><circle cx="62.0" cy="379.3" r="2.6" fill="#4d7c0f"/><circle cx="215.8" cy="364.9" r="2.6" fill="#4d7c0f"/><circle cx="282.4" cy="354.3" r="2.6" fill="#4d7c0f"/><circle cx="437.2" cy="300.4" r="2.6" fill="#4d7c0f"/><circle cx="503.9" cy="253.9" r="2.6" fill="#4d7c0f"/><circle cx="592.0" cy="216.6" r="2.6" fill="#4d7c0f"/><line x1="606" y1="326" x2="626" y2="326" stroke="#4d7c0f" stroke-width="2"/><text x="632" y="330" font-family="ui-monospace,monospace" font-size="11" font-weight="400" fill="#1f2937">LFU</text><polyline points="62.0,287.5 215.8,223.5 282.4,193.8 437.2,125.1 503.9,100.2 592.0,86.9" fill="none" stroke="#111827" stroke-width="3.2" stroke-linejoin="round"/><circle cx="62.0" cy="287.5" r="3.4" fill="#111827"/><circle cx="215.8" cy="223.5" r="3.4" fill="#111827"/><circle cx="282.4" cy="193.8" r="3.4" fill="#111827"/><circle cx="437.2" cy="125.1" r="3.4" fill="#111827"/><circle cx="503.9" cy="100.2" r="3.4" fill="#111827"/><circle cx="592.0" cy="86.9" r="3.4" fill="#111827"/><line x1="606" y1="345" x2="626" y2="345" stroke="#111827" stroke-width="3.2"/><text x="632" y="349" font-family="ui-monospace,monospace" font-size="11" font-weight="700" fill="#1f2937">OPT</text></svg>