<svg xmlns="http://www.w3.org/2000/svg" viewBox="0 0 760 534" width="760" height="534" role="img"><rect x="0" y="0" width="760" height="534" rx="10" fill="#ffffff" stroke="#d1d5db"/><text x="24" y="26" font-family="ui-monospace,monospace" font-size="16" font-weight="700" fill="#1f2937">Throughput: scan</text><text x="24" y="44" font-family="ui-monospace,monospace" font-size="11" fill="#6b7280">median of 12 interleaved trials at 1,990 entries, bars are the IQR</text><text x="140" y="77" text-anchor="end" font-family="ui-monospace,monospace" font-size="12" font-weight="400" fill="#1f2937">SIEVE</text><rect x="150" y="63" width="528.4" height="18" rx="3" fill="#94a3b8"/><line x1="667.6" y1="72" x2="689.2" y2="72" stroke="#1f2937" stroke-width="1"/><line x1="667.6" y1="68" x2="667.6" y2="76" stroke="#1f2937" stroke-width="1"/><line x1="689.2" y1="68" x2="689.2" y2="76" stroke="#1f2937" stroke-width="1"/><text x="697.2" y="77" font-family="ui-monospace,monospace" font-size="11" fill="#1f2937">25.4 ± 0.5</text><text x="140" y="107" text-anchor="end" font-family="ui-monospace,monospace" font-size="12" font-weight="400" fill="#1f2937">CLOCK</text><rect x="150" y="93" width="380.4" height="18" rx="3" fill="#94a3b8"/><line x1="528.5" y1="102" x2="532.2" y2="102" stroke="#1f2937" stroke-width="1"/><line x1="528.5" y1="98" x2="528.5" y2="106" stroke="#1f2937" stroke-width="1"/><line x1="532.2" y1="98" x2="532.2" y2="106" stroke="#1f2937" stroke-width="1"/><text x="540.2" y="107" font-family="ui-monospace,monospace" font-size="11" fill="#1f2937">18.3 ± 0.1</text><text x="140" y="137" text-anchor="end" font-family="ui-monospace,monospace" font-size="12" font-weight="400" fill="#1f2937">quick-lru</text><rect x="150" y="123" width="367.8" height="18" rx="3" fill="#94a3b8"/><line x1="515.6" y1="132" x2="520.0" y2="132" stroke="#1f2937" stroke-width="1"/><line x1="515.6" y1="128" x2="515.6" y2="136" stroke="#1f2937" stroke-width="1"/><line x1="520.0" y1="128" x2="520.0" y2="136" stroke="#1f2937" stroke-width="1"/><text x="528.0" y="137" font-family="ui-monospace,monospace" font-size="11" fill="#1f2937">17.7 ± 0.1</text><text x="140" y="167" text-anchor="end" font-family="ui-monospace,monospace" font-size="12" font-weight="400" fill="#1f2937">mnemonist</text><rect x="150" y="153" width="347.3" height="18" rx="3" fill="#94a3b8"/><line x1="494.7" y1="162" x2="500.0" y2="162" stroke="#1f2937" stroke-width="1"/><line x1="494.7" y1="158" x2="494.7" y2="166" stroke="#1f2937" stroke-width="1"/><line x1="500.0" y1="158" x2="500.0" y2="166" stroke="#1f2937" stroke-width="1"/><text x="508.0" y="167" font-family="ui-monospace,monospace" font-size="11" fill="#1f2937">16.7 ± 0.1</text><text x="140" y="197" text-anchor="end" font-family="ui-monospace,monospace" font-size="12" font-weight="400" fill="#1f2937">lru.min</text><rect x="150" y="183" width="314.6" height="18" rx="3" fill="#94a3b8"/><line x1="461.1" y1="192" x2="468.0" y2="192" stroke="#1f2937" stroke-width="1"/><line x1="461.1" y1="188" x2="461.1" y2="196" stroke="#1f2937" stroke-width="1"/><line x1="468.0" y1="188" x2="468.0" y2="196" stroke="#1f2937" stroke-width="1"/><text x="476.0" y="197" font-family="ui-monospace,monospace" font-size="11" fill="#1f2937">15.1 ± 0.2</text><text x="140" y="227" text-anchor="end" font-family="ui-monospace,monospace" font-size="12" font-weight="400" fill="#1f2937">Random</text><rect x="150" y="213" width="311.1" height="18" rx="3" fill="#94a3b8"/><line x1="457.2" y1="222" x2="465.1" y2="222" stroke="#1f2937" stroke-width="1"/><line x1="457.2" y1="218" x2="457.2" y2="226" stroke="#1f2937" stroke-width="1"/><line x1="465.1" y1="218" x2="465.1" y2="226" stroke="#1f2937" stroke-width="1"/><text x="473.1" y="227" font-family="ui-monospace,monospace" font-size="11" fill="#1f2937">14.9 ± 0.2</text><text x="140" y="257" text-anchor="end" font-family="ui-monospace,monospace" font-size="12" font-weight="400" fill="#1f2937">lru-cache</text><rect x="150" y="243" width="272.1" height="18" rx="3" fill="#94a3b8"/><line x1="420.7" y1="252" x2="423.6" y2="252" stroke="#1f2937" stroke-width="1"/><line x1="420.7" y1="248" x2="420.7" y2="256" stroke="#1f2937" stroke-width="1"/><line x1="423.6" y1="248" x2="423.6" y2="256" stroke="#1f2937" stroke-width="1"/><text x="431.6" y="257" font-family="ui-monospace,monospace" font-size="11" fill="#1f2937">13.1 ± 0.1</text><text x="140" y="287" text-anchor="end" font-family="ui-monospace,monospace" font-size="12" font-weight="400" fill="#1f2937">tiny-lru</text><rect x="150" y="273" width="225.5" height="18" rx="3" fill="#94a3b8"/><line x1="374.3" y1="282" x2="376.7" y2="282" stroke="#1f2937" stroke-width="1"/><line x1="374.3" y1="278" x2="374.3" y2="286" stroke="#1f2937" stroke-width="1"/><line x1="376.7" y1="278" x2="376.7" y2="286" stroke="#1f2937" stroke-width="1"/><text x="384.7" y="287" font-family="ui-monospace,monospace" font-size="11" fill="#1f2937">10.8 ± 0.1</text><text x="140" y="317" text-anchor="end" font-family="ui-monospace,monospace" font-size="12" font-weight="400" fill="#1f2937">hashlru</text><rect x="150" y="303" width="220.9" height="18" rx="3" fill="#94a3b8"/><line x1="370.2" y1="312" x2="371.6" y2="312" stroke="#1f2937" stroke-width="1"/><line x1="370.2" y1="308" x2="370.2" y2="316" stroke="#1f2937" stroke-width="1"/><line x1="371.6" y1="308" x2="371.6" y2="316" stroke="#1f2937" stroke-width="1"/><text x="379.6" y="317" font-family="ui-monospace,monospace" font-size="11" fill="#1f2937">10.6 ± 0.0</text><text x="140" y="347" text-anchor="end" font-family="ui-monospace,monospace" font-size="12" font-weight="700" fill="#1f2937">koffein</text><rect x="150" y="333" width="210.0" height="18" rx="3" fill="#0ea5e9"/><line x1="359.0" y1="342" x2="361.0" y2="342" stroke="#1f2937" stroke-width="1"/><line x1="359.0" y1="338" x2="359.0" y2="346" stroke="#1f2937" stroke-width="1"/><line x1="361.0" y1="338" x2="361.0" y2="346" stroke="#1f2937" stroke-width="1"/><text x="369.0" y="347" font-family="ui-monospace,monospace" font-size="11" fill="#1f2937">10.1 ± 0.0</text><text x="140" y="377" text-anchor="end" font-family="ui-monospace,monospace" font-size="12" font-weight="400" fill="#1f2937">transitory</text><rect x="150" y="363" width="173.7" height="18" rx="3" fill="#94a3b8"/><line x1="323.2" y1="372" x2="324.2" y2="372" stroke="#1f2937" stroke-width="1"/><line x1="323.2" y1="368" x2="323.2" y2="376" stroke="#1f2937" stroke-width="1"/><line x1="324.2" y1="368" x2="324.2" y2="376" stroke="#1f2937" stroke-width="1"/><text x="332.2" y="377" font-family="ui-monospace,monospace" font-size="11" fill="#1f2937">8.3 ± 0.0</text><text x="140" y="407" text-anchor="end" font-family="ui-monospace,monospace" font-size="12" font-weight="400" fill="#1f2937">LRU</text><rect x="150" y="393" width="136.6" height="18" rx="3" fill="#94a3b8"/><line x1="286.3" y1="402" x2="287.0" y2="402" stroke="#1f2937" stroke-width="1"/><line x1="286.3" y1="398" x2="286.3" y2="406" stroke="#1f2937" stroke-width="1"/><line x1="287.0" y1="398" x2="287.0" y2="406" stroke="#1f2937" stroke-width="1"/><text x="295.0" y="407" font-family="ui-monospace,monospace" font-size="11" fill="#1f2937">6.6 ± 0.0</text><text x="140" y="437" text-anchor="end" font-family="ui-monospace,monospace" font-size="12" font-weight="400" fill="#1f2937">LFU</text><rect x="150" y="423" width="109.1" height="18" rx="3" fill="#94a3b8"/><line x1="258.5" y1="432" x2="259.6" y2="432" stroke="#1f2937" stroke-width="1"/><line x1="258.5" y1="428" x2="258.5" y2="436" stroke="#1f2937" stroke-width="1"/><line x1="259.6" y1="428" x2="259.6" y2="436" stroke="#1f2937" stroke-width="1"/><text x="267.6" y="437" font-family="ui-monospace,monospace" font-size="11" fill="#1f2937">5.2 ± 0.0</text><text x="140" y="467" text-anchor="end" font-family="ui-monospace,monospace" font-size="12" font-weight="400" fill="#1f2937">FIFO</text><rect x="150" y="453" width="98.0" height="18" rx="3" fill="#94a3b8"/><line x1="247.6" y1="462" x2="248.5" y2="462" stroke="#1f2937" stroke-width="1"/><line x1="247.6" y1="458" x2="247.6" y2="466" stroke="#1f2937" stroke-width="1"/><line x1="248.5" y1="458" x2="248.5" y2="466" stroke="#1f2937" stroke-width="1"/><text x="256.5" y="467" font-family="ui-monospace,monospace" font-size="11" fill="#1f2937">4.7 ± 0.0</text><text x="140" y="497" text-anchor="end" font-family="ui-monospace,monospace" font-size="12" font-weight="400" fill="#1f2937">S3-FIFO</text><rect x="150" y="483" width="75.9" height="18" rx="3" fill="#94a3b8"/><line x1="225.8" y1="492" x2="226.0" y2="492" stroke="#1f2937" stroke-width="1"/><line x1="225.8" y1="488" x2="225.8" y2="496" stroke="#1f2937" stroke-width="1"/><line x1="226.0" y1="488" x2="226.0" y2="496" stroke="#1f2937" stroke-width="1"/><text x="234.0" y="497" font-family="ui-monospace,monospace" font-size="11" fill="#1f2937">3.6 ± 0.0</text><text x="700" y="526" text-anchor="end" font-family="ui-monospace,monospace" font-size="11" fill="#6b7280">Mops/s</text></svg>