<svg xmlns="http://www.w3.org/2000/svg" viewBox="0 0 760 534" width="760" height="534" role="img"><rect x="0" y="0" width="760" height="534" rx="10" fill="#ffffff" stroke="#d1d5db"/><text x="24" y="26" font-family="ui-monospace,monospace" font-size="16" font-weight="700" fill="#1f2937">Throughput: zipf-0.7</text><text x="24" y="44" font-family="ui-monospace,monospace" font-size="11" fill="#6b7280">median of 12 interleaved trials at 1,976 entries, bars are the IQR</text><text x="140" y="77" text-anchor="end" font-family="ui-monospace,monospace" font-size="12" font-weight="400" fill="#1f2937">SIEVE</text><rect x="150" y="63" width="529.8" height="18" rx="3" fill="#94a3b8"/><line x1="670.4" y1="72" x2="689.2" y2="72" stroke="#1f2937" stroke-width="1"/><line x1="670.4" y1="68" x2="670.4" y2="76" stroke="#1f2937" stroke-width="1"/><line x1="689.2" y1="68" x2="689.2" y2="76" stroke="#1f2937" stroke-width="1"/><text x="697.2" y="77" font-family="ui-monospace,monospace" font-size="11" fill="#1f2937">19.1 ± 0.3</text><text x="140" y="107" text-anchor="end" font-family="ui-monospace,monospace" font-size="12" font-weight="400" fill="#1f2937">tiny-lru</text><rect x="150" y="93" width="494.4" height="18" rx="3" fill="#94a3b8"/><line x1="631.8" y1="102" x2="657.0" y2="102" stroke="#1f2937" stroke-width="1"/><line x1="631.8" y1="98" x2="631.8" y2="106" stroke="#1f2937" stroke-width="1"/><line x1="657.0" y1="98" x2="657.0" y2="106" stroke="#1f2937" stroke-width="1"/><text x="665.0" y="107" font-family="ui-monospace,monospace" font-size="11" fill="#1f2937">17.8 ± 0.5</text><text x="140" y="137" text-anchor="end" font-family="ui-monospace,monospace" font-size="12" font-weight="400" fill="#1f2937">quick-lru</text><rect x="150" y="123" width="393.8" height="18" rx="3" fill="#94a3b8"/><line x1="538.7" y1="132" x2="549.0" y2="132" stroke="#1f2937" stroke-width="1"/><line x1="538.7" y1="128" x2="538.7" y2="136" stroke="#1f2937" stroke-width="1"/><line x1="549.0" y1="128" x2="549.0" y2="136" stroke="#1f2937" stroke-width="1"/><text x="557.0" y="137" font-family="ui-monospace,monospace" font-size="11" fill="#1f2937">14.2 ± 0.2</text><text x="140" y="167" text-anchor="end" font-family="ui-monospace,monospace" font-size="12" font-weight="400" fill="#1f2937">CLOCK</text><rect x="150" y="153" width="377.4" height="18" rx="3" fill="#94a3b8"/><line x1="523.3" y1="162" x2="531.5" y2="162" stroke="#1f2937" stroke-width="1"/><line x1="523.3" y1="158" x2="523.3" y2="166" stroke="#1f2937" stroke-width="1"/><line x1="531.5" y1="158" x2="531.5" y2="166" stroke="#1f2937" stroke-width="1"/><text x="539.5" y="167" font-family="ui-monospace,monospace" font-size="11" fill="#1f2937">13.6 ± 0.1</text><text x="140" y="197" text-anchor="end" font-family="ui-monospace,monospace" font-size="12" font-weight="400" fill="#1f2937">mnemonist</text><rect x="150" y="183" width="373.5" height="18" rx="3" fill="#94a3b8"/><line x1="520.5" y1="192" x2="526.5" y2="192" stroke="#1f2937" stroke-width="1"/><line x1="520.5" y1="188" x2="520.5" y2="196" stroke="#1f2937" stroke-width="1"/><line x1="526.5" y1="188" x2="526.5" y2="196" stroke="#1f2937" stroke-width="1"/><text x="534.5" y="197" font-family="ui-monospace,monospace" font-size="11" fill="#1f2937">13.5 ± 0.1</text><text x="140" y="227" text-anchor="end" font-family="ui-monospace,monospace" font-size="12" font-weight="400" fill="#1f2937">lru.min</text><rect x="150" y="213" width="329.7" height="18" rx="3" fill="#94a3b8"/><line x1="475.5" y1="222" x2="484.0" y2="222" stroke="#1f2937" stroke-width="1"/><line x1="475.5" y1="218" x2="475.5" y2="226" stroke="#1f2937" stroke-width="1"/><line x1="484.0" y1="218" x2="484.0" y2="226" stroke="#1f2937" stroke-width="1"/><text x="492.0" y="227" font-family="ui-monospace,monospace" font-size="11" fill="#1f2937">11.9 ± 0.2</text><text x="140" y="257" text-anchor="end" font-family="ui-monospace,monospace" font-size="12" font-weight="400" fill="#1f2937">Random</text><rect x="150" y="243" width="290.7" height="18" rx="3" fill="#94a3b8"/><line x1="435.8" y1="252" x2="445.5" y2="252" stroke="#1f2937" stroke-width="1"/><line x1="435.8" y1="248" x2="435.8" y2="256" stroke="#1f2937" stroke-width="1"/><line x1="445.5" y1="248" x2="445.5" y2="256" stroke="#1f2937" stroke-width="1"/><text x="453.5" y="257" font-family="ui-monospace,monospace" font-size="11" fill="#1f2937">10.5 ± 0.2</text><text x="140" y="287" text-anchor="end" font-family="ui-monospace,monospace" font-size="12" font-weight="400" fill="#1f2937">lru-cache</text><rect x="150" y="273" width="284.7" height="18" rx="3" fill="#94a3b8"/><line x1="431.7" y1="282" x2="437.7" y2="282" stroke="#1f2937" stroke-width="1"/><line x1="431.7" y1="278" x2="431.7" y2="286" stroke="#1f2937" stroke-width="1"/><line x1="437.7" y1="278" x2="437.7" y2="286" stroke="#1f2937" stroke-width="1"/><text x="445.7" y="287" font-family="ui-monospace,monospace" font-size="11" fill="#1f2937">10.3 ± 0.1</text><text x="140" y="317" text-anchor="end" font-family="ui-monospace,monospace" font-size="12" font-weight="400" fill="#1f2937">hashlru</text><rect x="150" y="303" width="218.2" height="18" rx="3" fill="#94a3b8"/><line x1="366.7" y1="312" x2="369.6" y2="312" stroke="#1f2937" stroke-width="1"/><line x1="366.7" y1="308" x2="366.7" y2="316" stroke="#1f2937" stroke-width="1"/><line x1="369.6" y1="308" x2="369.6" y2="316" stroke="#1f2937" stroke-width="1"/><text x="377.6" y="317" font-family="ui-monospace,monospace" font-size="11" fill="#1f2937">7.9 ± 0.1</text><text x="140" y="347" text-anchor="end" font-family="ui-monospace,monospace" font-size="12" font-weight="700" fill="#1f2937">koffein</text><rect x="150" y="333" width="215.6" height="18" rx="3" fill="#0ea5e9"/><line x1="361.7" y1="342" x2="369.5" y2="342" stroke="#1f2937" stroke-width="1"/><line x1="361.7" y1="338" x2="361.7" y2="346" stroke="#1f2937" stroke-width="1"/><line x1="369.5" y1="338" x2="369.5" y2="346" stroke="#1f2937" stroke-width="1"/><text x="377.5" y="347" font-family="ui-monospace,monospace" font-size="11" fill="#1f2937">7.8 ± 0.1</text><text x="140" y="377" text-anchor="end" font-family="ui-monospace,monospace" font-size="12" font-weight="400" fill="#1f2937">transitory</text><rect x="150" y="363" width="166.2" height="18" rx="3" fill="#94a3b8"/><line x1="314.0" y1="372" x2="318.3" y2="372" stroke="#1f2937" stroke-width="1"/><line x1="314.0" y1="368" x2="314.0" y2="376" stroke="#1f2937" stroke-width="1"/><line x1="318.3" y1="368" x2="318.3" y2="376" stroke="#1f2937" stroke-width="1"/><text x="326.3" y="377" font-family="ui-monospace,monospace" font-size="11" fill="#1f2937">6.0 ± 0.1</text><text x="140" y="407" text-anchor="end" font-family="ui-monospace,monospace" font-size="12" font-weight="400" fill="#1f2937">LRU</text><rect x="150" y="393" width="100.4" height="18" rx="3" fill="#94a3b8"/><line x1="249.7" y1="402" x2="251.1" y2="402" stroke="#1f2937" stroke-width="1"/><line x1="249.7" y1="398" x2="249.7" y2="406" stroke="#1f2937" stroke-width="1"/><line x1="251.1" y1="398" x2="251.1" y2="406" stroke="#1f2937" stroke-width="1"/><text x="259.1" y="407" font-family="ui-monospace,monospace" font-size="11" fill="#1f2937">3.6 ± 0.0</text><text x="140" y="437" text-anchor="end" font-family="ui-monospace,monospace" font-size="12" font-weight="400" fill="#1f2937">LFU</text><rect x="150" y="423" width="82.7" height="18" rx="3" fill="#94a3b8"/><line x1="232.1" y1="432" x2="233.3" y2="432" stroke="#1f2937" stroke-width="1"/><line x1="232.1" y1="428" x2="232.1" y2="436" stroke="#1f2937" stroke-width="1"/><line x1="233.3" y1="428" x2="233.3" y2="436" stroke="#1f2937" stroke-width="1"/><text x="241.3" y="437" font-family="ui-monospace,monospace" font-size="11" fill="#1f2937">3.0 ± 0.0</text><text x="140" y="467" text-anchor="end" font-family="ui-monospace,monospace" font-size="12" font-weight="400" fill="#1f2937">FIFO</text><rect x="150" y="453" width="80.0" height="18" rx="3" fill="#94a3b8"/><line x1="229.4" y1="462" x2="230.7" y2="462" stroke="#1f2937" stroke-width="1"/><line x1="229.4" y1="458" x2="229.4" y2="466" stroke="#1f2937" stroke-width="1"/><line x1="230.7" y1="458" x2="230.7" y2="466" stroke="#1f2937" stroke-width="1"/><text x="238.7" y="467" font-family="ui-monospace,monospace" font-size="11" fill="#1f2937">2.9 ± 0.0</text><text x="140" y="497" text-anchor="end" font-family="ui-monospace,monospace" font-size="12" font-weight="400" fill="#1f2937">S3-FIFO</text><rect x="150" y="483" width="60.4" height="18" rx="3" fill="#94a3b8"/><line x1="210.2" y1="492" x2="210.7" y2="492" stroke="#1f2937" stroke-width="1"/><line x1="210.2" y1="488" x2="210.2" y2="496" stroke="#1f2937" stroke-width="1"/><line x1="210.7" y1="488" x2="210.7" y2="496" stroke="#1f2937" stroke-width="1"/><text x="218.7" y="497" font-family="ui-monospace,monospace" font-size="11" fill="#1f2937">2.2 ± 0.0</text><text x="700" y="526" text-anchor="end" font-family="ui-monospace,monospace" font-size="11" fill="#6b7280">Mops/s</text></svg>